inDegrees=yes
name=ik_S55_A09_T01
DataType=double
version=3
OpenSimVersion=4.3-2021-08-27-4bc7ad9
endheader
time	pelvis_tilt	pelvis_list	pelvis_rotation	pelvis_tx	pelvis_ty	pelvis_tz	hip_flexion_r	hip_adduction_r	hip_rotation_r	knee_angle_r	knee_angle_r_beta	ankle_angle_r	subtalar_angle_r	mtp_angle_r	hip_flexion_l	hip_adduction_l	hip_rotation_l	knee_angle_l	knee_angle_l_beta	ankle_angle_l	subtalar_angle_l	mtp_angle_l	lumbar_extension	lumbar_bending	lumbar_rotation	arm_flex_r	arm_add_r	arm_rot_r	elbow_flex_r	pro_sup_r	wrist_flex_r	wrist_dev_r	arm_flex_l	arm_add_l	arm_rot_l	elbow_flex_l	pro_sup_l	wrist_flex_l	wrist_dev_l
22.03999999999962	-4.35142187703358	-0.4263235976291774	17.82573076589101	0	0.9399999999999999	0	43.31923745135918	-10.55928490800278	-10.37773817584753	54.24435745196244	0.9467426381654663	0	0	0	43.31923745135918	-10.55928490800278	-10.37773817584753	54.24435745196244	0.9467426381654663	0	0	0	-3.476940751975727	-1.835144194957006	8.261995081181862	52.47313165694864	-17.05535559168136	13.28612271355772	71.8348730841483	98.04134813300274	0	0	38.16932708392864	-25.24164352771029	4.715947976570548	79.34135385500166	110.0222681065794	0	0
22.05999999999962	-4.362390739479671	-0.436753063763213	17.93437417798025	0	0.9399999999999999	0	43.31996513929477	-10.55843794277767	-10.37737149758527	54.24457608261936	0.9467464539902755	0	0	0	43.31996513929477	-10.55843794277767	-10.37737149758527	54.24457608261936	0.9467464539902755	0	0	0	-3.491499497325467	-1.835995845695378	8.187018100965131	52.33832316586288	-16.59360002214578	13.9514171047132	71.32848279759683	98.220053258647	0	0	38.21487273531165	-25.23400020630464	4.719175414980415	79.33913537842665	110.0469494650748	0	0
22.07999999999962	-4.377038619888891	-0.4438610359763756	18.02968004893183	0	0.9399999999999999	0	43.32070657270084	-10.55757609522234	-10.37699814797717	54.24479892487855	0.9467503433214109	0	0	0	43.32070657270084	-10.55757609522234	-10.37699814797717	54.24479892487855	0.9467503433214109	0	0	0	-3.508394043010339	-1.833357617042158	8.126285509745097	52.25254587283432	-16.19596455022474	14.47814350553071	70.86507721277023	98.69757003594815	0	0	38.25343324081853	-25.21138262026678	4.752389321093327	79.33711443465488	110.0915280868072	0	0
22.09999999999962	-4.394033260239138	-0.4403708149798645	18.10968523138678	0	0.9399999999999999	0	43.32117013540785	-10.55705550527	-10.37676994824525	54.2449426991724	0.9467528526562183	0	0	0	43.32117013540785	-10.55705550527	-10.37676994824525	54.2449426991724	0.9467528526562183	0	0	0	-3.523249069002476	-1.824562454685649	8.13087398361268	52.21968997740469	-16.25308601170427	14.47895807591038	70.6953089459775	99.37773202589833	0	0	38.31581065318584	-25.12095452199958	4.794455359510384	79.383714964402	110.1540071978048	0	0
22.11999999999962	-4.389556466936386	-0.4542666691699705	18.1808820622113	0	0.9399999999999999	0	43.32195592547037	-10.55614587953087	-10.3763752281285	54.24517944421725	0.9467569846367387	0	0	0	43.32195592547037	-10.55614587953087	-10.3763752281285	54.24517944421725	0.9467569846367387	0	0	0	-3.523998994066729	-1.832868524110598	8.045764269965057	52.07931444797503	-15.83102516794392	14.79509524831442	70.30818990583427	100.2623386293975	0	0	38.33030097026481	-25.14196079688628	4.815961471164726	79.4013629337903	110.2332352824644	0	0
22.13999999999962	-4.416131765818472	-0.4774318685761092	18.24672680224968	0	0.9399999999999999	0	43.32275129542202	-10.55522447701324	-10.37597542583027	54.24541869225818	0.946761160302782	0	0	0	43.32275129542202	-10.55522447701324	-10.37597542583027	54.24541869225818	0.946761160302782	0	0	0	-3.556907079711844	-1.84449561628424	8.025883693183561	51.9940968068714	-15.53662026079338	14.86183785390086	70.02110688401115	100.6352908702139	0	0	38.41443953815374	-25.11583431761724	4.883393171357723	79.46548174726139	110.2758037234887	0	0
22.15999999999962	-4.431530001143213	-0.4852656590334307	18.28332704046476	0	0.9399999999999999	0	43.32317761249519	-10.55473641811382	-10.37576277132652	54.24554826737646	0.9467634218152244	0	0	0	43.32317761249519	-10.55473641811382	-10.37576277132652	54.24554826737646	0.9467634218152244	0	0	0	-3.574318743789279	-1.846288456338585	8.019731900884114	51.89895277209178	-15.31212598375174	14.70680838731477	69.81138896080148	100.078713988956	0	0	38.491435747159	-25.08963941098021	4.960655225342295	79.51433371167596	110.504341196627	0	0
22.17999999999962	-4.465539155678045	-0.5138101818891974	18.32092152004457	0	0.9399999999999999	0	43.32377761447197	-10.55404854553407	-10.37546316352716	54.24573028469354	0.9467665986167032	0	0	0	43.32377761447197	-10.55404854553407	-10.37546316352716	54.24573028469354	0.9467665986167032	0	0	0	-3.615215986336586	-1.866648274528383	8.089519052636078	51.86640425434059	-15.22542938051153	14.35319870547661	69.60635206177869	99.09722017159019	0	0	38.71318798980655	-25.00389598188558	5.197249643832129	79.49598171418148	110.7470707183721	0	0
22.19999999999962	-4.47316559054481	-0.5367403463410026	18.33004844925281	0	0.9399999999999999	0	43.32419233549356	-10.55357509623433	-10.37525660320522	54.2458564415621	0.9467688004694336	0	0	0	43.32419233549356	-10.55357509623433	-10.37525660320522	54.2458564415621	0.9467688004694336	0	0	0	-3.629569761061277	-1.89266124301577	8.200400575807874	51.75085855273868	-15.26352296326858	13.932392864988	69.68963678132278	99.22793013977699	0	0	38.93786563067398	-24.91712330358516	5.497305970078699	79.71068408533081	111.5982839739487	0	0
